# xmcd
#
# Track frame offsets:
#	150
#	13185
#	34987
#	48807
#	67120
#	83082
#	102270
#	122562
#	140162
# Disc length: 2184 seconds
# Revision: 2
# Processed by: cddbd v1.5.1PL0 Copyright (c) Steve Scherf et al.
#
# Submitted via: libkcddb 0.10
#
DISCID=7a088609
DTITLE=Various Artist - Nothin' but the Best of the Blues
DYEAR=1900
DGENRE=Unknown
TTITLE0=Just a Little Bit
TTITLE1=Big Legged Women
TTITLE2=Brown Sugar
TTITLE3=Get the Spirit
TTITLE4=Directly from My Heart
TTITLE5=Night Train
TTITLE6=Hello Josephine
TTITLE7=Fell Down on My Knees
TTITLE8=More Soul
EXTD=
EXTT0=
EXTT1=
EXTT2=
EXTT3=
EXTT4=
EXTT5=
EXTT6=
EXTT7=
EXTT8=
PLAYORDER=
